<?xml version="1.0" standalone="no"?>
<!DOCTYPE svg PUBLIC "-//W3C//DTD SVG 20010904//EN"
 "http://www.w3.org/TR/2001/REC-SVG-20010904/DTD/svg10.dtd">
<svg version="1.0" xmlns="http://www.w3.org/2000/svg"
 width="512.000000pt" height="512.000000pt" viewBox="0 0 512.000000 512.000000"
 preserveAspectRatio="xMidYMid meet">

<g transform="translate(0.000000,512.000000) scale(0.100000,-0.100000)"
fill="#000000" stroke="none">
<path d="M2360 4149 c-41 -5 -118 -18 -170 -29 -591 -129 -1087 -569 -1289
-1145 l-39 -110 -33 5 c-78 12 -184 3 -241 -19 -108 -42 -176 -111 -224 -228
-24 -58 -24 -58 -24 -463 0 -405 0 -405 24 -463 35 -84 72 -133 135 -178 223
-160 533 -61 619 198 12 39 17 128 22 478 7 414 8 434 33 536 133 556 542 958
1097 1080 149 32 428 33 577 1 586 -127 1016 -575 1118 -1166 11 -68 15 -171
15 -440 0 -193 4 -377 10 -409 21 -131 102 -242 219 -300 62 -30 72 -32 176
-32 99 0 116 3 168 27 73 35 155 116 193 193 l29 60 0 430 0 430 -32 66 c-80
162 -255 250 -427 214 -39 -8 -73 -11 -76 -7 -3 4 -17 41 -29 82 -136 436
-479 827 -904 1030 -291 139 -625 195 -947 159z"/>
<path d="M2494 2866 c-17 -8 -44 -31 -60 -52 l-29 -37 -3 -841 c-2 -940 -7
-884 68 -934 30 -20 45 -23 97 -20 53 3 68 9 94 33 62 58 59 18 59 915 0 679
-2 826 -14 854 -31 74 -138 116 -212 82z"/>
<path d="M1854 2546 c-17 -8 -44 -31 -60 -52 l-29 -37 -3 -524 c-2 -504 -2
-526 17 -569 16 -35 29 -49 63 -64 80 -36 154 -20 204 46 l29 37 3 524 c2 504
2 526 -17 569 -16 35 -29 49 -63 64 -50 23 -100 25 -144 6z"/>
<path d="M3145 2546 c-38 -17 -80 -62 -94 -99 -7 -19 -11 -199 -11 -528 0
-551 -1 -539 63 -596 61 -53 130 -55 196 -6 62 47 61 41 61 603 0 414 -3 517
-14 544 -30 72 -132 114 -201 82z"/>
</g>
</svg>
